<svg width="256" height="256" viewBox="0 0 256 256" fill="none" xmlns="http://www.w3.org/2000/svg">
  <rect width="256" height="256" rx="64" fill="url(#bg)" />
  <rect x="14" y="14" width="228" height="228" rx="50" stroke="url(#frame)" stroke-width="2" />
  <rect x="40" y="52" width="176" height="152" rx="32" fill="url(#panel)" />
  <rect x="56" y="72" width="92" height="16" rx="8" fill="#B8C6E7" fill-opacity="0.2" />
  <rect x="56" y="103" width="110" height="12" rx="6" fill="#7A88A9" fill-opacity="0.42" />
  <rect x="56" y="129" width="88" height="12" rx="6" fill="#7A88A9" fill-opacity="0.3" />
  <rect x="56" y="155" width="74" height="12" rx="6" fill="#7A88A9" fill-opacity="0.24" />
  <rect x="170" y="74" width="22" height="96" rx="11" fill="#101722" />
  <rect x="173" y="77" width="16" height="32" rx="8" fill="#2ED38B" />
  <rect x="173" y="109" width="16" height="28" rx="8" fill="#F4B54E" />
  <rect x="173" y="137" width="16" height="30" rx="8" fill="#FF5D73" />
  <path d="M48 188C70.6667 172 88 164 100 164C112 164 128 171.333 148 186L164 172L188 192" stroke="url(#accent)" stroke-width="12" stroke-linecap="round" stroke-linejoin="round" />
  <defs>
    <linearGradient id="bg" x1="32" y1="24" x2="224" y2="232" gradientUnits="userSpaceOnUse">
      <stop stop-color="#1A2331" />
      <stop offset="0.5" stop-color="#101722" />
      <stop offset="1" stop-color="#222C3B" />
    </linearGradient>
    <linearGradient id="panel" x1="55" y1="60" x2="194" y2="193" gradientUnits="userSpaceOnUse">
      <stop stop-color="#202B3B" />
      <stop offset="1" stop-color="#131B27" />
    </linearGradient>
    <linearGradient id="frame" x1="36" y1="18" x2="220" y2="236" gradientUnits="userSpaceOnUse">
      <stop stop-color="#5B6D8F" stop-opacity="0.5" />
      <stop offset="1" stop-color="#5B6D8F" stop-opacity="0.12" />
    </linearGradient>
    <linearGradient id="accent" x1="62" y1="164" x2="178" y2="198" gradientUnits="userSpaceOnUse">
      <stop stop-color="#55A2FF" />
      <stop offset="0.5" stop-color="#7B7BFF" />
      <stop offset="1" stop-color="#FF5D73" />
    </linearGradient>
  </defs>
</svg>
